<svg xmlns="http://www.w3.org/2000/svg" x="0px" y="0px" width="50" height="50" viewBox="0,0,255.99747,255.99747">
<g fill="green" fill-rule="nonzero" stroke="none" stroke-width="1" stroke-linecap="butt" stroke-linejoin="miter" stroke-miterlimit="10" stroke-dasharray="" stroke-dashoffset="0" font-family="none" font-weight="none" font-size="none" text-anchor="none" style="mix-blend-mode: normal"><g transform="scale(5.33333,5.33333)"><path d="M19.04102,4.01367c-0.65826,-0.04789 -1.33274,0.01939 -1.99414,0.21484l-2.36719,0.70117c-2.52245,0.74601 -4.49335,2.74739 -5.16016,5.27344c-1.48058,5.61774 0.21315,12.26716 4.62109,19.75195c4.40175,7.47446 9.41739,12.22486 15.08203,13.77539c2.55099,0.69822 5.3021,0.03124 7.23438,-1.76367l1.80078,-1.66992c2.01501,-1.87088 2.31545,-4.98699 0.6875,-7.20117l-2.60156,-3.5332c-1.39454,-1.89416 -3.85279,-2.70058 -6.11328,-2.02148l-4.07031,1.21875c-0.17085,0.04989 -0.57973,-0.1828 -0.93555,-0.49023l-0.00195,-0.00195c-0.63374,-0.55106 -1.51179,-1.66487 -2.45117,-3.25781v-0.00195c-1.00727,-1.71072 -1.43689,-2.82953 -1.60937,-3.49023c-0.17256,-0.66101 -0.13069,-0.74141 -0.10547,-0.96484c0.01311,-0.11149 0.06608,-0.21479 0.15625,-0.29687l0.00195,-0.00195l3.03516,-2.77539c1.73889,-1.58965 2.26384,-4.13 1.2832,-6.26758l-1.83008,-3.99219v-0.00195c-0.86161,-1.8781 -2.68786,-3.0595 -4.66211,-3.20312zM18.82422,7.00586c0.9182,0.0686 1.76371,0.61936 2.15039,1.46289l1.83203,3.99219c0.44336,0.96642 0.22103,2.07234 -0.58008,2.80469l-3.03516,2.77344c-0.62221,0.56732 -1.02011,1.34082 -1.11523,2.17578v0.00195c-0.02478,0.21957 -0.08334,1.0361 0.18359,2.05859c0.26694,1.02249 0.81805,2.37492 1.92578,4.25586h0.00195c1.03358,1.75301 2.01044,3.08479 3.06836,4.00391h0.00195c0.34356,0.29743 1.78347,1.67745 3.74219,1.10547l0.00586,-0.00195l4.08789,-1.22461c1.06151,-0.3189 2.19652,0.06189 2.83398,0.92773l2.60156,3.5332c0.73671,1.00367 0.60799,2.368 -0.3125,3.22266l-1.80078,1.67188c-1.15167,1.07026 -2.86185,1.48805 -4.40234,1.06641c-4.57936,-1.25347 -9.11086,-5.31081 -13.28711,-12.40234c-4.18205,-7.10121 -5.49006,-12.97459 -4.30664,-17.46484c0.39119,-1.48195 1.58978,-2.71212 3.11133,-3.16211l2.36523,-0.70117c0.3081,-0.09105 0.62167,-0.12248 0.92773,-0.09961z"></path></g></g>
</svg>